<svg xmlns="http://www.w3.org/2000/svg" width="192.134" height="80" viewBox="0 0 192.134 80">
    <path d="M76,4V76H4V4H76m4-4H0V80H80V0h0Z"/>
    <path d="M40.784,58.841h-5.04L23.126,39.984l-3.6,4.16v14.7h-4v-38h4v19h0.205a17.792,17.792,0,0,1,3.024-4.319l11.7-14.681h5.208L26.112,36.986Z"/>
    <path d="M64.523,58.841h-20v-38h4v34h16v4Z"/>
    <path d="M102.48,21.609q1.567-.335,3.444-0.56a33.906,33.906,0,0,1,4-.224,19.23,19.23,0,0,1,5.824.758,9.144,9.144,0,0,1,3.864,2.327,8.427,8.427,0,0,1,2.352,6.227,8.044,8.044,0,0,1-1.83,5.188,9.9,9.9,0,0,1-4.7,3.226v0.168a12.565,12.565,0,0,1,2.625.951,9.32,9.32,0,0,1,2.569,1.844,9.925,9.925,0,0,1,1.955,2.853,9.32,9.32,0,0,1,.782,3.97,10.592,10.592,0,0,1-.754,4.139,9.534,9.534,0,0,1-2.038,3.075,10.091,10.091,0,0,1-4.8,2.769,26.147,26.147,0,0,1-6.87.811q-2.122,0-3.713-.112t-2.709-.224V21.609Zm2.632,16.128h5.32a11.075,11.075,0,0,0,3.64-.562,8.177,8.177,0,0,0,2.772-1.574,6.9,6.9,0,0,0,2.38-5.284,7.321,7.321,0,0,0-.7-3.345,6.1,6.1,0,0,0-1.932-2.249,8.228,8.228,0,0,0-3-1.264,17.6,17.6,0,0,0-3.836-.394q-1.792,0-2.912.113a11.2,11.2,0,0,0-1.736.281V37.737Zm0,18.873a12.063,12.063,0,0,0,1.9.225q1.119,0.056,2.576.056a20.128,20.128,0,0,0,4.172-.42,9.962,9.962,0,0,0,3.5-1.428,7.674,7.674,0,0,0,2.436-2.633,8.05,8.05,0,0,0,.924-4.031,7.922,7.922,0,0,0-.868-3.836,7.5,7.5,0,0,0-2.38-2.633,10.878,10.878,0,0,0-3.5-1.541,16.92,16.92,0,0,0-4.172-.5h-4.592V56.609Z"/>
    <path d="M130.255,19.145h2.632v39.7h-2.632v-39.7Z"/>
    <path d="M152.011,31.353a12.112,12.112,0,0,1,4.917.98,10.78,10.78,0,0,1,3.827,2.8A13.176,13.176,0,0,1,163.24,39.5a17.087,17.087,0,0,1,.895,5.684,16.958,16.958,0,0,1-1.118,6.468,12.763,12.763,0,0,1-2.934,4.452,11.55,11.55,0,0,1-4.022,2.548,12.642,12.642,0,0,1-4.385.813,11.788,11.788,0,0,1-4.722-.952,10.781,10.781,0,0,1-3.827-2.772,13.245,13.245,0,0,1-2.543-4.367,16.8,16.8,0,0,1-.921-5.74,17.292,17.292,0,0,1,1.005-6.132,13.153,13.153,0,0,1,2.738-4.48,11.584,11.584,0,0,1,3.939-2.744A11.951,11.951,0,0,1,152.011,31.353Zm-0.028,2.24a8.464,8.464,0,0,0-4.34,1.063,9.691,9.691,0,0,0-3.024,2.744,11.474,11.474,0,0,0-1.764,3.809,16.652,16.652,0,0,0-.56,4.256,15.04,15.04,0,0,0,.7,4.676,11.572,11.572,0,0,0,1.96,3.724,9.261,9.261,0,0,0,3,2.465,8.3,8.3,0,0,0,3.864.9,8.532,8.532,0,0,0,3.864-.9,9.38,9.38,0,0,0,3.08-2.465,11.643,11.643,0,0,0,2.016-3.752A15.18,15.18,0,0,0,161.5,45.3a15.473,15.473,0,0,0-.532-3.893,12.965,12.965,0,0,0-1.652-3.78,9.458,9.458,0,0,0-2.94-2.885A8.083,8.083,0,0,0,151.983,33.593Z"/>
    <path d="M191.91,54.93q0,7.9-2.856,11.731T179.422,70.5a19.47,19.47,0,0,1-4.564-.546,10.647,10.647,0,0,1-3.78-1.639l0.952-2.128a13.754,13.754,0,0,0,3.276,1.54,14.285,14.285,0,0,0,4.508.644,11.308,11.308,0,0,0,3.808-.617,7.491,7.491,0,0,0,3-1.968,9.231,9.231,0,0,0,1.96-3.514,17.459,17.459,0,0,0,.7-5.312v-3.2h-0.112a10.572,10.572,0,0,1-13.608,4.06,11.051,11.051,0,0,1-3.556-2.8,13.1,13.1,0,0,1-2.324-4.172,15.7,15.7,0,0,1-.84-5.208,17.2,17.2,0,0,1,1.036-6.216,13.633,13.633,0,0,1,2.716-4.48,11.177,11.177,0,0,1,3.78-2.687,10.831,10.831,0,0,1,4.284-.9,11.087,11.087,0,0,1,3.388.477,9.257,9.257,0,0,1,2.548,1.231,8.806,8.806,0,0,1,1.764,1.624,8.453,8.453,0,0,1,1.092,1.708h0.168V31.969h2.52q-0.113,1.456-.168,3.136t-0.056,3.92v15.9Zm-2.632-12.691a9.4,9.4,0,0,0-.336-2.583,9.584,9.584,0,0,0-1.12-2.273,9.029,9.029,0,0,0-1.736-1.937,8.03,8.03,0,0,0-5.264-1.853,8.47,8.47,0,0,0-6.776,3.228,11.2,11.2,0,0,0-1.9,3.705,16.327,16.327,0,0,0-.672,4.857,15.989,15.989,0,0,0,.588,4.378,10.738,10.738,0,0,0,1.764,3.621,8.554,8.554,0,0,0,2.912,2.442,8.666,8.666,0,0,0,4.032.9,8.328,8.328,0,0,0,4.816-1.544,8.651,8.651,0,0,0,3.248-4.519,9.572,9.572,0,0,0,.448-2.808V42.238Z"/>
</svg>