<svg xmlns="http://www.w3.org/2000/svg" width="431.642" height="80" viewBox="0 0 431.642 80">
    <path d="M76,4V76H4V4H76m4-4H0V80H80V0h0Z"/>
    <path d="M40.784,58.841h-5.04L23.126,39.984l-3.6,4.16v14.7h-4v-38h4v19h0.205a17.792,17.792,0,0,1,3.024-4.319l11.7-14.681h5.208L26.112,36.986Z"/>
    <path d="M64.523,58.841h-20v-38h4v34h16v4Z"/>
    <path d="M102.48,21.1h2.632V40.2h0.224q0.784-1.119,1.6-2.1t1.6-1.876L121.52,21.1h3.248L110.712,37.122,126.056,58.85h-3.192L108.92,38.969l-3.808,4.256V58.85H102.48V21.1Z"/>
    <path d="M130.423,39.921q0-1.96-.056-4T130.2,31.969h2.52v5.376h0.168a10.1,10.1,0,0,1,2.856-4.256,6.853,6.853,0,0,1,4.7-1.736,5.24,5.24,0,0,1,1.008.112v2.576a3.806,3.806,0,0,0-.616-0.057h-0.672a5.841,5.841,0,0,0-4.592,2.128,10.4,10.4,0,0,0-2.352,5.321q-0.113.617-.168,1.26T133,43.953v14.9h-2.632Z"/>
    <path d="M162.792,52.466q0,1.625.056,3.248a21,21,0,0,0,.336,3.136h-2.464l-0.392-3.808h-0.112a9.529,9.529,0,0,1-1.288,1.567,10.1,10.1,0,0,1-1.82,1.429,9.669,9.669,0,0,1-2.352,1.035,10.093,10.093,0,0,1-2.884.393,8.631,8.631,0,0,1-3.444-.642,7.07,7.07,0,0,1-2.436-1.675,6.813,6.813,0,0,1-1.428-2.372,7.942,7.942,0,0,1-.476-2.68,8.2,8.2,0,0,1,4.032-7.284q4.032-2.6,12.04-2.483V41.6a17.58,17.58,0,0,0-.2-2.453,7.718,7.718,0,0,0-.871-2.621,5.664,5.664,0,0,0-2.025-2.086,6.841,6.841,0,0,0-3.655-.845,11.615,11.615,0,0,0-3.459.532,11.738,11.738,0,0,0-3.121,1.483l-0.84-1.96a12.474,12.474,0,0,1,3.706-1.764,14.815,14.815,0,0,1,3.99-.532,9.638,9.638,0,0,1,4.581.952,7.606,7.606,0,0,1,2.782,2.464,9.184,9.184,0,0,1,1.376,3.388,19.491,19.491,0,0,1,.366,3.725V52.466Zm-2.632-8.008a36.8,36.8,0,0,0-4.472.168,16.3,16.3,0,0,0-4.3.979,8.226,8.226,0,0,0-3.261,2.212,5.607,5.607,0,0,0-1.293,3.864,6.226,6.226,0,0,0,.45,2.492,4.944,4.944,0,0,0,1.181,1.708,4.828,4.828,0,0,0,1.687,1.008,5.9,5.9,0,0,0,1.969.336,8.877,8.877,0,0,0,2.924-.448,7.573,7.573,0,0,0,2.25-1.2,7.65,7.65,0,0,0,1.6-1.708,8.038,8.038,0,0,0,.984-1.96,6.407,6.407,0,0,0,.28-1.624V44.458Z"/>
    <path d="M169.96,31.969l6.16,16.688q0.784,1.961,1.4,3.7T178.7,55.77h0.112q1.063-3.192,2.632-7.112l6.216-16.688h2.8l-10.7,26.88h-2.3l-10.3-26.88h2.8Z"/>
    <path d="M194.6,23.793a2.262,2.262,0,0,1,.644-1.624,2.12,2.12,0,0,1,1.6-.672,2.294,2.294,0,0,1,2.3,2.3,2.119,2.119,0,0,1-.672,1.6,2.261,2.261,0,0,1-1.624.644A2.2,2.2,0,0,1,194.6,23.793Zm0.952,35.057V31.969h2.632V58.85h-2.632Z"/>
    <path d="M206.023,55.321a15.116,15.116,0,0,0,2.575,1.261,9.056,9.056,0,0,0,3.3.588,6.408,6.408,0,0,0,4.648-1.484,5.217,5.217,0,0,0,.168-7.168,12.644,12.644,0,0,0-4.2-2.548,14.049,14.049,0,0,1-4.984-3.08,5.9,5.9,0,0,1-1.736-4.256,7.007,7.007,0,0,1,.56-2.772,6.891,6.891,0,0,1,1.624-2.323,7.808,7.808,0,0,1,2.576-1.6,9.372,9.372,0,0,1,3.416-.588,10.4,10.4,0,0,1,3.3.5,10.6,10.6,0,0,1,2.52,1.176l-1.064,2.185a10.259,10.259,0,0,0-1.932-1.064,8,8,0,0,0-3.221-.56,5.015,5.015,0,0,0-3.836,1.4,4.6,4.6,0,0,0-1.316,3.248,4.006,4.006,0,0,0,1.346,3.221,15.3,15.3,0,0,0,4.088,2.268,14.906,14.906,0,0,1,5.012,3.108,6.622,6.622,0,0,1,1.82,4.9,6.937,6.937,0,0,1-2.465,5.6,9.76,9.76,0,0,1-6.5,2.071,13.188,13.188,0,0,1-3.7-.5,11.208,11.208,0,0,1-3.024-1.344Z"/>
    <path d="M239.623,21.1h2.632v35.5h16.464v2.24h-19.1V21.1Z"/>
    <path d="M263.254,23.793a2.262,2.262,0,0,1,.645-1.624,2.121,2.121,0,0,1,1.6-.672,2.294,2.294,0,0,1,2.3,2.3,2.119,2.119,0,0,1-.672,1.6,2.261,2.261,0,0,1-1.624.644A2.2,2.2,0,0,1,263.254,23.793Zm0.952,35.057V31.969h2.632V58.85h-2.632Z"/>
    <path d="M295.957,52.3q0,1.793.057,3.416t0.168,3.136h-2.521V54.2h-0.224a12.835,12.835,0,0,1-1.288,1.849,8.882,8.882,0,0,1-1.9,1.708,10.254,10.254,0,0,1-5.768,1.708,10.472,10.472,0,0,1-2.856-.448,7.107,7.107,0,0,1-2.912-1.708,9.82,9.82,0,0,1-2.268-3.556,16.282,16.282,0,0,1-.924-5.992V31.969h2.632V47.235a20.491,20.491,0,0,0,.365,4.013,9.471,9.471,0,0,0,1.18,3.144,5.981,5.981,0,0,0,2.136,2.076,6.522,6.522,0,0,0,3.289.758,7.427,7.427,0,0,0,2.7-.477,8.367,8.367,0,0,0,2.22-1.263,9.293,9.293,0,0,0,1.687-1.739,7.4,7.4,0,0,0,1.461-3.341,8.421,8.421,0,0,0,.141-1.543V31.969h2.632V52.3Z"/>
    <path d="M307.493,20.153q-0.393,1.568-.979,3.444t-1.232,3.612q-0.645,1.737-1.2,3.136a15.336,15.336,0,0,1-.9,1.96l-1.849.28q0.337-.9.757-2.353t0.84-3.136q0.419-1.68.784-3.388t0.531-3Z"/>
    <path d="M308.39,55.321a15.044,15.044,0,0,0,2.575,1.261,9.052,9.052,0,0,0,3.3.588,6.405,6.405,0,0,0,4.647-1.484,5.214,5.214,0,0,0,.168-7.168,12.623,12.623,0,0,0-4.2-2.548,14.049,14.049,0,0,1-4.984-3.08,5.908,5.908,0,0,1-1.736-4.256,7,7,0,0,1,.561-2.772,6.864,6.864,0,0,1,1.624-2.323,7.788,7.788,0,0,1,2.576-1.6,9.367,9.367,0,0,1,3.415-.588,10.4,10.4,0,0,1,3.3.5,10.6,10.6,0,0,1,2.52,1.176L321.1,35.217a10.272,10.272,0,0,0-1.933-1.064,7.992,7.992,0,0,0-3.22-.56,5.015,5.015,0,0,0-3.836,1.4,4.6,4.6,0,0,0-1.316,3.248,4.006,4.006,0,0,0,1.345,3.221,15.316,15.316,0,0,0,4.088,2.268,14.886,14.886,0,0,1,5.012,3.108,6.622,6.622,0,0,1,1.82,4.9,6.94,6.94,0,0,1-2.464,5.6,9.762,9.762,0,0,1-6.5,2.071,13.2,13.2,0,0,1-3.7-.5,11.221,11.221,0,0,1-3.024-1.344Z"/>
    <path d="M341.989,21.609q1.566-.335,3.443-0.56a33.909,33.909,0,0,1,4-.224,19.234,19.234,0,0,1,5.824.758,9.138,9.138,0,0,1,3.864,2.327,8.428,8.428,0,0,1,2.352,6.227,8.044,8.044,0,0,1-1.829,5.188,9.9,9.9,0,0,1-4.7,3.226v0.168a12.545,12.545,0,0,1,2.625.951,9.315,9.315,0,0,1,2.569,1.844,9.925,9.925,0,0,1,1.955,2.853,9.32,9.32,0,0,1,.782,3.97,10.583,10.583,0,0,1-.755,4.139,9.532,9.532,0,0,1-2.037,3.075,10.1,10.1,0,0,1-4.8,2.769,26.158,26.158,0,0,1-6.87.811q-2.123,0-3.713-.112t-2.709-.224V21.609Zm2.632,16.128h5.319a11.081,11.081,0,0,0,3.641-.562,8.177,8.177,0,0,0,2.771-1.574,6.886,6.886,0,0,0,2.38-5.284,7.328,7.328,0,0,0-.7-3.345,6.1,6.1,0,0,0-1.933-2.249,8.224,8.224,0,0,0-3-1.264,17.591,17.591,0,0,0-3.836-.394q-1.793,0-2.912.113a11.186,11.186,0,0,0-1.735.281V37.737Zm0,18.873a12.056,12.056,0,0,0,1.9.225q1.121,0.056,2.576.056a20.12,20.12,0,0,0,4.172-.42,9.954,9.954,0,0,0,3.5-1.428,7.666,7.666,0,0,0,2.437-2.633,8.045,8.045,0,0,0,.924-4.031,7.928,7.928,0,0,0-.868-3.836,7.5,7.5,0,0,0-2.38-2.633,10.874,10.874,0,0,0-3.5-1.541,16.917,16.917,0,0,0-4.172-.5h-4.592V56.609Z"/>
    <path d="M369.764,19.145H372.4v39.7h-2.632v-39.7Z"/>
    <path d="M391.519,31.353a12.112,12.112,0,0,1,4.917.98,10.785,10.785,0,0,1,3.827,2.8,13.177,13.177,0,0,1,2.486,4.368,17.1,17.1,0,0,1,.894,5.684,16.949,16.949,0,0,1-1.117,6.468,12.763,12.763,0,0,1-2.934,4.452,11.55,11.55,0,0,1-4.022,2.548,12.64,12.64,0,0,1-4.386.813,11.8,11.8,0,0,1-4.722-.952,10.786,10.786,0,0,1-3.827-2.772,13.252,13.252,0,0,1-2.542-4.367,16.8,16.8,0,0,1-.922-5.74,17.27,17.27,0,0,1,1.006-6.132,13.137,13.137,0,0,1,2.737-4.48,11.584,11.584,0,0,1,3.939-2.744A11.948,11.948,0,0,1,391.519,31.353Zm-0.027,2.24a8.458,8.458,0,0,0-4.34,1.063,9.693,9.693,0,0,0-3.024,2.744,11.464,11.464,0,0,0-1.764,3.809,16.632,16.632,0,0,0-.561,4.256,15.055,15.055,0,0,0,.7,4.676,11.581,11.581,0,0,0,1.96,3.724,9.261,9.261,0,0,0,3,2.465,8.3,8.3,0,0,0,3.864.9,8.526,8.526,0,0,0,3.863-.9,9.36,9.36,0,0,0,3.08-2.465,11.635,11.635,0,0,0,2.017-3.752,15.18,15.18,0,0,0,.728-4.815,15.473,15.473,0,0,0-.532-3.893,12.938,12.938,0,0,0-1.651-3.78,9.45,9.45,0,0,0-2.94-2.885A8.078,8.078,0,0,0,391.491,33.593Z"/>
    <path d="M431.418,54.93q0,7.9-2.856,11.731T418.93,70.5a19.463,19.463,0,0,1-4.563-.546,10.642,10.642,0,0,1-3.78-1.639l0.952-2.128a13.737,13.737,0,0,0,3.275,1.54,14.293,14.293,0,0,0,4.509.644,11.307,11.307,0,0,0,3.808-.617,7.491,7.491,0,0,0,3-1.968,9.238,9.238,0,0,0,1.96-3.514,17.472,17.472,0,0,0,.7-5.312v-3.2h-0.112a10.079,10.079,0,0,1-3.3,3.556,11.055,11.055,0,0,1-10.3.5,11.065,11.065,0,0,1-3.556-2.8,13.126,13.126,0,0,1-2.324-4.172,15.712,15.712,0,0,1-.84-5.208,17.2,17.2,0,0,1,1.036-6.216,13.625,13.625,0,0,1,2.716-4.48,11.172,11.172,0,0,1,3.78-2.687,10.832,10.832,0,0,1,4.284-.9,11.083,11.083,0,0,1,3.388.477,9.271,9.271,0,0,1,2.548,1.231,8.79,8.79,0,0,1,1.764,1.624,8.46,8.46,0,0,1,1.093,1.708h0.168V31.969h2.52q-0.113,1.456-.168,3.136t-0.056,3.92v15.9Zm-2.632-12.691a9.419,9.419,0,0,0-.336-2.583,9.6,9.6,0,0,0-1.12-2.273,9.057,9.057,0,0,0-1.736-1.937,8.033,8.033,0,0,0-5.264-1.853,8.468,8.468,0,0,0-6.776,3.228,11.214,11.214,0,0,0-1.9,3.705,16.359,16.359,0,0,0-.672,4.857,16.008,16.008,0,0,0,.588,4.378,10.74,10.74,0,0,0,1.765,3.621,8.55,8.55,0,0,0,2.912,2.442,8.661,8.661,0,0,0,4.031.9,8.33,8.33,0,0,0,4.816-1.544,8.648,8.648,0,0,0,3.248-4.519,9.589,9.589,0,0,0,.448-2.808V42.238Z"/>
</svg>