<svg xmlns="http://www.w3.org/2000/svg" width="124.8453" height="26" viewBox="0 0 124.8453 26"><defs><style>.a{fill:transparent;}</style></defs><title>long-style</title><rect class="a" x="1" y="1" width="24" height="24"/><path d="M24,2V24H2V2H24m2-2H0V26H26V0h0Z"/><path d="M14.2241,18.3921h-1.44L9.1841,13,8.16,14.1841v4.208H6.9438V7.6079H8.16v5.2646H8.208q0.4-.5918.8643-1.1523L12.416,7.6079h1.4878l-3.8716,4.5762Z"/><path d="M21.0562,18.3921H15.28V7.6079h1.2163v9.76h4.56v1.0244Z"/><path d="M30.8018,7.6122h0.7524v5.4561h0.064q0.2234-.3193.4556-0.6c0.1548-.186.3066-0.3652,0.4561-0.5356l3.7124-4.32H37.17l-4.0161,4.5762,4.3843,6.208H36.6261l-3.9839-5.68-1.0879,1.2163v4.4639H30.8018V7.6122Z"/><path d="M38.7857,12.9882q0-.56-0.0156-1.1436t-0.0483-1.1284h0.72v1.5361H39.49a2.8839,2.8839,0,0,1,.8159-1.2158A1.9588,1.9588,0,0,1,41.65,10.54a1.51,1.51,0,0,1,.2881.0317v0.7363a1.0737,1.0737,0,0,0-.1763-0.0161H41.57a1.6679,1.6679,0,0,0-1.312.6079,2.9672,2.9672,0,0,0-.6719,1.52q-0.0322.1765-.0479,0.36t-0.0161.36v4.2559H38.77Z"/><path d="M48.0333,16.5722q0,0.4644.0156,0.9277a6.0925,6.0925,0,0,0,.0962.8965H47.441l-0.1118-1.0879H47.297a2.7252,2.7252,0,0,1-.3677.4482,2.8576,2.8576,0,0,1-.52.4072,2.7685,2.7685,0,0,1-.6724.2969,2.8921,2.8921,0,0,1-.8237.1113,2.4616,2.4616,0,0,1-.9839-0.1826,2.0377,2.0377,0,0,1-.6963-0.4785,1.9594,1.9594,0,0,1-.4077-0.6777,2.2749,2.2749,0,0,1-.1362-0.7656,2.3434,2.3434,0,0,1,1.1519-2.0811,6.2575,6.2575,0,0,1,3.44-.71v-0.209a5.0193,5.0193,0,0,0-.0566-0.7007,2.1917,2.1917,0,0,0-.249-0.7485,1.616,1.616,0,0,0-.5781-0.5962,1.9547,1.9547,0,0,0-1.0444-.2412,3.4231,3.4231,0,0,0-1.88.5757l-0.24-.56a3.5666,3.5666,0,0,1,1.0591-.5039,4.2376,4.2376,0,0,1,1.14-.1519,2.7575,2.7575,0,0,1,1.3091.272,2.1715,2.1715,0,0,1,.7944.7041,2.6261,2.6261,0,0,1,.3936.9678,5.5759,5.5759,0,0,1,.1045,1.064v3.0239Zm-0.752-2.2871a10.4325,10.4325,0,0,0-1.2778.0479,4.6464,4.6464,0,0,0-1.229.2793,2.3525,2.3525,0,0,0-.9316.6328,1.6,1.6,0,0,0-.37,1.1035,1.7768,1.7768,0,0,0,.1284.7119,1.412,1.412,0,0,0,.3374.4883,1.3919,1.3919,0,0,0,.4819.2881,1.6977,1.6977,0,0,0,.5625.0957,2.5527,2.5527,0,0,0,.8354-0.1279,2.1516,2.1516,0,0,0,1.1011-.832,2.3023,2.3023,0,0,0,.2813-0.5605,1.8239,1.8239,0,0,0,.08-0.4639V14.2851Z"/><path d="M50.0811,10.7162l1.76,4.7681q0.2241,0.561.4,1.0557,0.1758,0.4966.3359,0.9766H52.609q0.304-.9126.752-2.0322l1.7764-4.7681h0.8l-3.0562,7.68H52.2252l-2.9438-7.68h0.8Z"/><path d="M57.1212,8.38a0.6462,0.6462,0,0,1,.1836-0.4639,0.6066,0.6066,0,0,1,.4561-0.1919,0.6552,0.6552,0,0,1,.6563.6558,0.6058,0.6058,0,0,1-.1919.4561,0.6458,0.6458,0,0,1-.4644.1841A0.6281,0.6281,0,0,1,57.1212,8.38Zm0.272,10.0161v-7.68h0.752v7.68h-0.752Z"/><path d="M60.3848,17.3886a4.2749,4.2749,0,0,0,.7358.3594,2.5768,2.5768,0,0,0,.9443.168,1.8264,1.8264,0,0,0,1.3276-.4238,1.49,1.49,0,0,0,.0483-2.0479,3.6128,3.6128,0,0,0-1.2-.7275,4.01,4.01,0,0,1-1.4238-.88,1.6882,1.6882,0,0,1-.4961-1.2163,1.9967,1.9967,0,0,1,.16-0.792,1.9667,1.9667,0,0,1,.4639-0.6641,2.2289,2.2289,0,0,1,.7358-0.4561,2.68,2.68,0,0,1,.9761-0.168,2.9613,2.9613,0,0,1,.9438.144,3.0119,3.0119,0,0,1,.72.3359l-0.3042.624a2.9322,2.9322,0,0,0-.5518-0.3042,2.2831,2.2831,0,0,0-.92-0.16,1.4327,1.4327,0,0,0-1.0962.4,1.3135,1.3135,0,0,0-.376.9277,1.144,1.144,0,0,0,.3843.92,4.3934,4.3934,0,0,0,1.168.6484,4.2417,4.2417,0,0,1,1.4316.8877,1.8916,1.8916,0,0,1,.52,1.3994,1.9831,1.9831,0,0,1-.7036,1.6006,2.79,2.79,0,0,1-1.8564.5918,3.7417,3.7417,0,0,1-1.0557-.1445,3.1973,3.1973,0,0,1-.8643-0.3838Z"/><path d="M69.9849,7.6122h0.7524V17.7568H75.441v0.64H69.9849V7.6122Z"/><path d="M76.7364,8.38A0.6462,0.6462,0,0,1,76.92,7.9164a0.6066,0.6066,0,0,1,.4561-0.1919,0.6552,0.6552,0,0,1,.6563.6558,0.6058,0.6058,0,0,1-.1919.4561,0.6458,0.6458,0,0,1-.4644.1841A0.6281,0.6281,0,0,1,76.7364,8.38Zm0.272,10.0161v-7.68H77.76v7.68h-0.752Z"/><path d="M86.08,16.5243q0,0.5127.0156,0.9756t0.0479,0.8965h-0.72V17.0683H85.36a3.7226,3.7226,0,0,1-.3682.5283,2.5554,2.5554,0,0,1-.5439.4883,2.9725,2.9725,0,0,1-.7363.3516,2.9155,2.9155,0,0,1-.9121.1357,3.0013,3.0013,0,0,1-.8154-0.1279,2.02,2.02,0,0,1-.832-0.4883A2.7952,2.7952,0,0,1,80.504,16.94a4.6583,4.6583,0,0,1-.2637-1.7119V10.7162h0.752V15.078a5.7866,5.7866,0,0,0,.1045,1.1465,2.7061,2.7061,0,0,0,.3369.8984,1.7059,1.7059,0,0,0,.61.5928,1.86,1.86,0,0,0,.9395.2168,2.1023,2.1023,0,0,0,.7705-0.1367,2.38,2.38,0,0,0,.6348-0.36,2.6275,2.6275,0,0,0,.4814-0.4971,2.4538,2.4538,0,0,0,.3135-0.5615,2.4855,2.4855,0,0,0,.1045-0.3926,2.4466,2.4466,0,0,0,.04-0.44V10.7162H86.08v5.8081Z"/><path d="M89.3761,7.34q-0.1113.4482-.28,0.9844c-0.1113.3574-.2295,0.7012-0.3516,1.0317s-0.2373.6294-.3437,0.896a4.5706,4.5706,0,0,1-.2559.56l-0.5283.08c0.0645-.17.1357-0.3945,0.2158-0.6719s0.16-.5762.24-0.896,0.1543-.6426.2236-0.9683,0.12-.61.1523-0.856Z"/><path d="M89.6319,17.3886a4.2458,4.2458,0,0,0,.7363.3594,2.5753,2.5753,0,0,0,.9434.168,1.8264,1.8264,0,0,0,1.3276-.4238,1.4882,1.4882,0,0,0,.0479-2.0479,3.5989,3.5989,0,0,0-1.1987-.7275,4.0152,4.0152,0,0,1-1.4248-.88,1.6912,1.6912,0,0,1-.4951-1.2163,2.0044,2.0044,0,0,1,.1592-0.792,1.9736,1.9736,0,0,1,.4639-0.6641,2.2362,2.2362,0,0,1,.7363-0.4561,2.6806,2.6806,0,0,1,.9766-0.168,2.9616,2.9616,0,0,1,.9429.144,3.0251,3.0251,0,0,1,.7207.3359l-0.3047.624a2.9165,2.9165,0,0,0-.5518-0.3042,2.2806,2.2806,0,0,0-.9194-0.16,1.43,1.43,0,0,0-1.0957.4,1.3114,1.3114,0,0,0-.376.9277,1.1451,1.1451,0,0,0,.3838.92,4.4014,4.4014,0,0,0,1.168.6484,4.249,4.249,0,0,1,1.4312.8877,1.8919,1.8919,0,0,1,.5205,1.3994,1.9849,1.9849,0,0,1-.7041,1.6006,2.7878,2.7878,0,0,1-1.856.5918,3.7417,3.7417,0,0,1-1.0557-.1445,3.1905,3.1905,0,0,1-.8643-0.3838Z"/><path d="M99.232,7.7563q0.4468-.0959.9834-0.16a9.7153,9.7153,0,0,1,1.1445-.064,5.4883,5.4883,0,0,1,1.6641.2163,2.61,2.61,0,0,1,1.1035.665,2.4056,2.4056,0,0,1,.6719,1.7788,2.2968,2.2968,0,0,1-.5225,1.4824,2.8273,2.8273,0,0,1-1.3428.9219v0.0479a3.6268,3.6268,0,0,1,.75.2715,2.6792,2.6792,0,0,1,.7334.5273,2.8215,2.8215,0,0,1,.5586.8149,2.6582,2.6582,0,0,1,.2236,1.1348,3.0224,3.0224,0,0,1-.2158,1.1816,2.7344,2.7344,0,0,1-.582.8789,2.8828,2.8828,0,0,1-1.3721.791,7.4771,7.4771,0,0,1-1.9629.2314q-0.6064,0-1.0615-.0322t-0.7734-.0635V7.7563Zm0.752,4.6079h1.52a3.172,3.172,0,0,0,1.04-.16,2.3408,2.3408,0,0,0,.792-0.45,1.9743,1.9743,0,0,0,.6807-1.51,2.0991,2.0991,0,0,0-.2-0.9561,1.74,1.74,0,0,0-.5527-0.6426,2.3513,2.3513,0,0,0-.8555-0.3608,5.0146,5.0146,0,0,0-1.0957-.1128q-0.5127,0-.832.0322a3.1679,3.1679,0,0,0-.4961.0806v4.0791Zm0,5.3926a3.57,3.57,0,0,0,.5439.0635q0.3193,0.0161.7354,0.0166a5.7544,5.7544,0,0,0,1.1924-.12,2.8537,2.8537,0,0,0,1-.4082,2.191,2.191,0,0,0,.6963-0.752,2.3041,2.3041,0,0,0,.2637-1.1523,2.2674,2.2674,0,0,0-.248-1.0957,2.1359,2.1359,0,0,0-.68-0.752,3.1025,3.1025,0,0,0-1-.44,4.8285,4.8285,0,0,0-1.1924-.144H99.984v4.7842Z"/><path d="M107.1666,7.0522h0.752V18.3964h-0.752V7.0522Z"/><path d="M113.3824,10.54a3.4654,3.4654,0,0,1,1.4053.28,3.0846,3.0846,0,0,1,1.0938.8,3.7662,3.7662,0,0,1,.71,1.248,4.8921,4.8921,0,0,1,.2559,1.6245,4.8556,4.8556,0,0,1-.3193,1.8467,3.6284,3.6284,0,0,1-.8389,1.2725,3.3053,3.3053,0,0,1-1.1494.7285,3.6144,3.6144,0,0,1-1.2529.2314,3.3784,3.3784,0,0,1-1.3486-.2715,3.0836,3.0836,0,0,1-1.0937-.792,3.7935,3.7935,0,0,1-.7266-1.249,4.8073,4.8073,0,0,1-.2627-1.6387,4.9413,4.9413,0,0,1,.2871-1.7524,3.7516,3.7516,0,0,1,.7822-1.28,3.3128,3.3128,0,0,1,1.125-.7837A3.4159,3.4159,0,0,1,113.3824,10.54Zm-0.0078.64a2.4219,2.4219,0,0,0-1.24.3037,2.7534,2.7534,0,0,0-.8633.7842,3.2738,3.2738,0,0,0-.5039,1.0879,4.7293,4.7293,0,0,0-.16,1.2158,4.2959,4.2959,0,0,0,.2,1.3369,3.3013,3.3013,0,0,0,.56,1.0635,2.6475,2.6475,0,0,0,.8564.7041,2.3646,2.3646,0,0,0,1.1035.2559,2.4351,2.4351,0,0,0,1.1045-.2559,2.691,2.691,0,0,0,.88-0.7041,3.3531,3.3531,0,0,0,.5762-1.0723,4.3554,4.3554,0,0,0,.208-1.376,4.4076,4.4076,0,0,0-.1523-1.1118,3.7136,3.7136,0,0,0-.4717-1.08,2.706,2.706,0,0,0-.8408-0.8242A2.3106,2.3106,0,0,0,113.3746,11.1806Z"/><path d="M124.7818,17.2763a5.616,5.616,0,0,1-.8164,3.3525,3.21,3.21,0,0,1-2.752,1.0957,5.5217,5.5217,0,0,1-1.3037-.1562,3.0384,3.0384,0,0,1-1.08-.4678l0.2725-.6084a3.9147,3.9147,0,0,0,.9355.44,4.0941,4.0941,0,0,0,1.2881.1836,3.2383,3.2383,0,0,0,1.0879-.1758,2.1423,2.1423,0,0,0,.8564-0.5625,2.649,2.649,0,0,0,.56-1.0039,4.97,4.97,0,0,0,.2-1.5176V16.94h-0.0322a3.0206,3.0206,0,0,1-3.8877,1.16,3.17,3.17,0,0,1-1.0166-.8,3.7368,3.7368,0,0,1-.6631-1.1924,4.4773,4.4773,0,0,1-.24-1.4873,4.9182,4.9182,0,0,1,.2959-1.7764,3.9,3.9,0,0,1,.7754-1.28,3.2032,3.2032,0,0,1,1.08-.7681,3.1,3.1,0,0,1,1.2246-.2559,3.18,3.18,0,0,1,.9678.1357,2.64,2.64,0,0,1,.7275.3521,2.5073,2.5073,0,0,1,.5049.4644,2.4053,2.4053,0,0,1,.3115.4878h0.0479V10.7162h0.72q-0.0322.4167-.0479,0.896t-0.0156,1.12v4.5439ZM124.03,13.65a2.7065,2.7065,0,0,0-.0957-0.7378,2.7492,2.7492,0,0,0-.32-0.6494,2.5606,2.5606,0,0,0-.4961-0.5532,2.2951,2.2951,0,0,0-1.5039-.5293,2.4225,2.4225,0,0,0-1.9365.9219,3.2092,3.2092,0,0,0-.5439,1.0586,4.6716,4.6716,0,0,0-.1914,1.3877,4.5587,4.5587,0,0,0,.168,1.251,3.0763,3.0763,0,0,0,.5039,1.0342,2.4388,2.4388,0,0,0,.832.6982,2.4742,2.4742,0,0,0,1.1523.2559,2.38,2.38,0,0,0,1.376-.44,2.4789,2.4789,0,0,0,.9277-1.291,2.7464,2.7464,0,0,0,.1279-0.8018V13.65Z"/></svg>