<svg xmlns="http://www.w3.org/2000/svg" width="56.4202" height="26" viewBox="0 0 56.4202 26"><defs><style>.a{fill:transparent;}</style></defs><title>short-style</title><rect class="a" x="1" y="1" width="24" height="24"/><path d="M24,2V24H2V2H24m2-2H0V26H26V0h0Z"/><path d="M14.2241,18.3921h-1.44L9.1841,13,8.16,14.1841v4.208H6.9438V7.6079H8.16v5.2646H8.208q0.4-.5918.8643-1.1523L12.416,7.6079h1.4878l-3.8716,4.5762Z"/><path d="M21.0562,18.3921H15.28V7.6079h1.2163v9.76h4.56v1.0244Z"/><path d="M30.8049,7.7544q0.4482-.0959.9844-0.16a9.6948,9.6948,0,0,1,1.144-.064,5.4827,5.4827,0,0,1,1.6636.2163,2.6023,2.6023,0,0,1,1.104.665,2.4059,2.4059,0,0,1,.6724,1.7788,2.2972,2.2972,0,0,1-.5229,1.4824,2.833,2.833,0,0,1-1.3433.9224v0.0469a3.6637,3.6637,0,0,1,.75.2715,2.7081,2.7081,0,0,1,.7339.5273,2.843,2.843,0,0,1,.5586.8159,2.661,2.661,0,0,1,.2236,1.1338,3.033,3.033,0,0,1-.2153,1.1826,2.7277,2.7277,0,0,1-.5825.8789,2.88,2.88,0,0,1-1.3726.791,7.4706,7.4706,0,0,1-1.9624.2314q-0.6064,0-1.061-.0322t-0.7744-.0635V7.7544Zm0.7524,4.6079h1.52a3.1679,3.1679,0,0,0,1.04-.16,2.3408,2.3408,0,0,0,.792-0.45,1.9673,1.9673,0,0,0,.68-1.51,2.0928,2.0928,0,0,0-.2-0.9561,1.742,1.742,0,0,0-.5518-0.6426,2.3574,2.3574,0,0,0-.856-0.3608A5.0191,5.0191,0,0,0,32.885,8.17q-0.512,0-.832.0322a3.17,3.17,0,0,0-.4956.0806v4.0791Zm0,5.3931a3.5629,3.5629,0,0,0,.5439.0635q0.3193,0.0161.7358,0.0166a5.7462,5.7462,0,0,0,1.1919-.12,2.8576,2.8576,0,0,0,1-.4082,2.1957,2.1957,0,0,0,.6963-0.752,2.3041,2.3041,0,0,0,.2637-1.1523,2.2592,2.2592,0,0,0-.248-1.0957,2.1378,2.1378,0,0,0-.68-0.7524,3.0971,3.0971,0,0,0-1-.4395,4.8043,4.8043,0,0,0-1.1919-.1445h-1.312v4.7847Z"/><path d="M38.74,7.05h0.752V18.395H38.74V7.05Z"/><path d="M44.9563,10.5386a3.463,3.463,0,0,1,1.4048.28,3.0828,3.0828,0,0,1,1.0933.8,3.7647,3.7647,0,0,1,.71,1.2485,4.8718,4.8718,0,0,1,.2554,1.6235,4.8473,4.8473,0,0,1-.3193,1.8486,3.6447,3.6447,0,0,1-.8379,1.2715,3.3143,3.3143,0,0,1-1.1494.7285,3.6164,3.6164,0,0,1-1.2529.2314,3.3808,3.3808,0,0,1-1.3491-.2715,3.0879,3.0879,0,0,1-1.0937-.792,3.7892,3.7892,0,0,1-.7261-1.248,4.7947,4.7947,0,0,1-.2637-1.6406,4.9316,4.9316,0,0,1,.2876-1.7515,3.7492,3.7492,0,0,1,.7822-1.2808,3.31,3.31,0,0,1,1.1255-.7837A3.4106,3.4106,0,0,1,44.9563,10.5386Zm-0.0083.64a2.4188,2.4188,0,0,0-1.24.3037,2.7675,2.7675,0,0,0-.8643.7842,3.2693,3.2693,0,0,0-.5039,1.0879,4.7725,4.7725,0,0,0-.16,1.2163,4.3,4.3,0,0,0,.2,1.3359,3.3162,3.3162,0,0,0,.56,1.0645,2.6509,2.6509,0,0,0,.856.7041,2.368,2.368,0,0,0,1.104.2559,2.4316,2.4316,0,0,0,1.104-.2559,2.6759,2.6759,0,0,0,.88-0.7041,3.3248,3.3248,0,0,0,.5762-1.0723,4.3277,4.3277,0,0,0,.208-1.376,4.4387,4.4387,0,0,0-.1519-1.1128,3.7045,3.7045,0,0,0-.4722-1.08,2.7027,2.7027,0,0,0-.84-0.8242A2.3112,2.3112,0,0,0,44.948,11.1787Z"/><path d="M56.3562,17.2749a5.6162,5.6162,0,0,1-.8159,3.3525,3.2107,3.2107,0,0,1-2.752,1.0957,5.5288,5.5288,0,0,1-1.3042-.1562,3.0345,3.0345,0,0,1-1.08-.4678l0.272-.6084a3.9368,3.9368,0,0,0,.936.44,4.0962,4.0962,0,0,0,1.2881.1836,3.2362,3.2362,0,0,0,1.0879-.1758,2.1406,2.1406,0,0,0,.856-0.5625,2.63,2.63,0,0,0,.56-1.0039,4.9852,4.9852,0,0,0,.2-1.5176V16.939H55.572a2.8762,2.8762,0,0,1-.9438,1.0156,3.1572,3.1572,0,0,1-2.9438.1445,3.1521,3.1521,0,0,1-1.0161-.8,3.7481,3.7481,0,0,1-.6641-1.1924,4.479,4.479,0,0,1-.24-1.4883,4.9066,4.9066,0,0,1,.2964-1.7759,3.8926,3.8926,0,0,1,.7759-1.28,3.1936,3.1936,0,0,1,1.08-.7681,3.0962,3.0962,0,0,1,1.2241-.2559,3.1779,3.1779,0,0,1,.9678.1357,2.6436,2.6436,0,0,1,.728.3521,2.5007,2.5007,0,0,1,.5039.4644,2.4088,2.4088,0,0,1,.312.4878H55.7V10.7144h0.72q-0.0322.4167-.0479,0.896t-0.0161,1.12v4.5444Zm-0.752-3.6265a2.6884,2.6884,0,0,0-.0962-0.7383,2.7532,2.7532,0,0,0-.32-0.6489,2.5735,2.5735,0,0,0-.4961-0.5532,2.2951,2.2951,0,0,0-1.5039-.5293,2.4528,2.4528,0,0,0-1.0879.2407,2.4235,2.4235,0,0,0-.8481.6812,3.2048,3.2048,0,0,0-.5439,1.0586,4.6722,4.6722,0,0,0-.1919,1.3882,4.5587,4.5587,0,0,0,.168,1.251,3.0581,3.0581,0,0,0,.5039,1.0342,2.4433,2.4433,0,0,0,.832.6982,2.4735,2.4735,0,0,0,1.1519.2559,2.3791,2.3791,0,0,0,1.376-.44,2.4743,2.4743,0,0,0,.9282-1.291,2.7477,2.7477,0,0,0,.1279-0.8027v-1.604Z"/></svg>